<?xml version="1.0" standalone="no"?>
<!DOCTYPE svg PUBLIC "-//W3C//DTD SVG 1.1//EN" "http://www.w3.org/Graphics/SVG/1.1/DTD/svg11.dtd" >
<svg xmlns="http://www.w3.org/2000/svg" xmlns:xlink="http://www.w3.org/1999/xlink" version="1.1">
<metadata></metadata>
<defs>
<font id="vw_textbold" horiz-adv-x="1126" >
<font-face units-per-em="2048" ascent="1612" descent="-436" />
<missing-glyph horiz-adv-x="460" />
<glyph horiz-adv-x="0" />
<glyph horiz-adv-x="0" />
<glyph horiz-adv-x="682" />
<glyph unicode="&#xd;" horiz-adv-x="460" />
<glyph unicode=" "  horiz-adv-x="460" />
<glyph unicode="&#x09;" horiz-adv-x="460" />
<glyph unicode="&#xa0;" horiz-adv-x="460" />
<glyph unicode="!" horiz-adv-x="561" d="M121 137q0 74 43.5 122t114.5 48q72 0 115.5 -47.5t43.5 -122.5t-43 -121.5t-116 -46.5q-71 0 -114.5 47t-43.5 121zM143 1077v316h273v-316l-58 -596h-155z" />
<glyph unicode="&#x22;" horiz-adv-x="856" d="M119 1198v195h260v-195l-53 -369h-154zM477 1198v195h260v-195l-53 -369h-154z" />
<glyph unicode="#" horiz-adv-x="1380" d="M76 336v174h225l94 364h-170v175h215l88 344h197v-21l-84 -323h279l88 344h198v-21l-84 -323h183v-175h-228l-94 -364h172v-174h-217l-86 -336h-197v20l80 316h-278l-86 -336h-197v20l82 316h-180zM502 510h278l94 364h-278z" />
<glyph unicode="$" d="M111 104l84 197q144 -99 305 -113v412l-60 25q-299 120 -299 383q0 163 95.5 270.5t263.5 136.5v162h166v-158q159 -23 299 -90l-78 -201q-117 57 -221 72v-399h2q168 -66 257 -161t89 -237q0 -157 -96.5 -271.5t-251.5 -147.5v-246h-166v233q-201 10 -389 133zM381 1022 q0 -106 125 -170v348q-125 -53 -125 -178zM659 199q115 62 115 184q0 52 -28.5 90t-86.5 70v-344z" />
<glyph unicode="%" horiz-adv-x="1648" d="M78 1030q0 106 30.5 188.5t99.5 134.5t169 52q152 0 229.5 -105.5t77.5 -269.5t-77.5 -269.5t-229.5 -105.5q-100 0 -169 52t-99.5 134.5t-30.5 188.5zM256 0v20l934 1373h213v-21l-934 -1372h-213zM258 1030q0 -111 32.5 -164t86.5 -53q62 0 93.5 51.5t31.5 165.5 q0 217 -125 217q-53 0 -86 -55.5t-33 -161.5zM965 358q0 106 30.5 188.5t99.5 134.5t169 52q152 0 229.5 -105.5t77.5 -269.5t-77.5 -269t-229.5 -105q-100 0 -169 51.5t-99.5 134t-30.5 188.5zM1145 358q0 -111 32.5 -164t86.5 -53q62 0 93.5 51.5t31.5 165.5 q0 217 -125 217q-53 0 -86 -55.5t-33 -161.5z" />
<glyph unicode="&#x26;" horiz-adv-x="1415" d="M104 346q0 56 17.5 107t43 87t64 71t70.5 57.5t72 48.5q5 3 8 4.5t7 4.5t7 5l15 10l-7 9q-31 37 -51 63.5t-47 70.5t-41 91.5t-14 95.5q0 146 104.5 249t274.5 103q153 0 258.5 -103.5t105.5 -246.5q0 -80 -31.5 -146t-75.5 -108t-108 -82l-43 -28l219 -238 q80 113 101 147l92 142l172 -129l-86 -133q-74 -113 -133 -185l270 -293v-20h-303l-129 143q-200 -174 -424 -174q-186 0 -297 104t-111 273zM362 358q0 -79 51 -129.5t150 -50.5q64 0 119 30t123 91l-262 297l-17 -10q-32 -21 -54.5 -39t-51 -47t-43.5 -65t-15 -77z M489 1063q0 -97 74 -176l27 -33l55 37q117 76 117 172q0 71 -36.5 111t-98.5 40q-65 0 -101.5 -43t-36.5 -108z" />
<glyph unicode="'" horiz-adv-x="497" d="M119 1198v195h260v-195l-53 -369h-154z" />
<glyph unicode="(" horiz-adv-x="573" d="M98 514q0 279 69 521t179 431l146 -67q-160 -378 -160 -885t160 -885l-146 -67q-110 189 -179 431t-69 521z" />
<glyph unicode=")" horiz-adv-x="573" d="M82 -371q160 378 160 885t-160 885l145 67q110 -189 179 -431t69 -521t-69 -521t-179 -431z" />
<glyph unicode="*" horiz-adv-x="911" d="M96 981l213 92v4l-213 92l97 172l184 -137l4 2l-25 228h199l-27 -228l4 -2l185 137l98 -172l-213 -90v-4l213 -94l-96 -172l-187 139l-4 -2l27 -231h-199l27 229l-4 2l-184 -137z" />
<glyph unicode="+" d="M82 451v211h371v395h219v-395h372v-211h-372v-398h-219v398h-371z" />
<glyph unicode="," horiz-adv-x="528" d="M41 -309l123 585h252v-20l-187 -586h-188v21z" />
<glyph unicode="-" horiz-adv-x="843" d="M133 451v211h578v-211h-578z" />
<glyph unicode="." horiz-adv-x="542" d="M109 137q0 74 45 122t116 48q73 0 118.5 -48t45.5 -122t-45.5 -121t-118.5 -47q-72 0 -116.5 47t-44.5 121z" />
<glyph unicode="/" horiz-adv-x="839" d="M51 0v20l522 1373h215v-21l-522 -1372h-215z" />
<glyph unicode="0" d="M51 696q0 727 512 727q133 0 232 -50.5t159.5 -146.5t89.5 -227.5t29 -302.5t-29 -302.5t-89.5 -227.5t-159.5 -146.5t-232 -50.5q-512 0 -512 727zM313 696q0 -260 57.5 -385t192.5 -125q134 0 191 125.5t57 384.5t-57 384.5t-191 125.5q-135 0 -192.5 -125t-57.5 -385z " />
<glyph unicode="1" d="M174 0v211h283v917h-4l-213 -75h-25v225l313 115h185v-1182h268v-211h-807z" />
<glyph unicode="2" d="M117 1225q174 198 418 198q204 0 325 -117.5t121 -322.5q0 -68 -19.5 -133t-55.5 -121t-62.5 -88.5t-63.5 -73.5l-338 -352v-4h553v-211h-874v193l467 507q35 40 52.5 63t39 59.5t30.5 75.5t9 85q0 92 -53 157.5t-142 65.5q-82 0 -143 -36.5t-131 -106.5z" />
<glyph unicode="3" d="M94 74l68 198q155 -86 336 -86q104 0 172.5 57.5t68.5 149.5q0 100 -57.5 152.5t-183.5 52.5h-213v215h215q105 0 153.5 53t48.5 144q0 86 -52 141t-150 55q-149 0 -303 -69l-74 194q78 41 182 66.5t195 25.5q228 0 346.5 -103t118.5 -290q0 -110 -61 -192.5t-136 -110.5 v-4q101 -41 165 -130.5t64 -217.5q0 -188 -129 -297t-370 -109q-231 0 -404 105z" />
<glyph unicode="4" d="M47 301v178l359 914h256l-334 -877v-4h338v428h256v-428h143v-211h-143v-301h-256v301h-619z" />
<glyph unicode="5" d="M102 47l58 211q169 -72 323 -72q126 0 190 62t64 180q0 221 -233 221q-115 0 -275 -16l-36 37l67 723h688v-211h-471l-26 -316q37 2 84 2q104 0 187 -24.5t146 -76t97 -137.5t34 -202q0 -219 -140 -339t-382 -120q-70 0 -178 21.5t-197 56.5z" />
<glyph unicode="6" d="M86 451q0 187 90 344l348 598h279v-21l-309 -502v-4q2 1 14 8.5t18 10.5l19 9.5t23.5 10t24.5 7.5t29.5 6t32.5 2q169 0 280.5 -131t111.5 -338q0 -134 -53.5 -242t-163.5 -174t-261 -66q-116 0 -209 38t-152 104t-90.5 153t-31.5 187zM348 451q0 -121 59.5 -193 t161.5 -72q97 0 158 73t61 192t-59.5 185t-159.5 66q-104 0 -162.5 -65.5t-58.5 -185.5z" />
<glyph unicode="7" d="M133 1182v211h864v-191l-475 -1202h-270v20l469 1158v4h-588z" />
<glyph unicode="8" d="M76 377q0 125 63.5 217.5t163.5 136.5v4q-75 37 -125.5 112.5t-50.5 190.5q0 176 109 280.5t327 104.5q217 0 326.5 -105t109.5 -280q0 -115 -50.5 -190.5t-125.5 -112.5v-4q101 -41 164.5 -135t63.5 -219q0 -188 -126 -298t-362 -110t-361.5 110t-125.5 298zM340 401 q0 -98 55.5 -156.5t167.5 -58.5q113 0 170.5 59t57.5 156q0 98 -57.5 156.5t-170.5 58.5q-112 0 -167.5 -58t-55.5 -157zM389 1020q0 -189 174 -189q90 0 134 50t44 139q0 88 -44 137t-134 49q-174 0 -174 -186z" />
<glyph unicode="9" d="M78 942q0 100 31.5 187t91 152.5t151 103.5t205.5 38q116 0 208.5 -38t151.5 -104t90 -152.5t31 -186.5q0 -188 -88 -346l-348 -596h-280v20l311 502q0 1 -1 2t-1 2q-2 -1 -14 -8.5t-17.5 -10.5t-18.5 -9.5t-23.5 -9.5t-25 -7t-29.5 -6t-32 -2q-170 0 -281.5 131 t-111.5 338zM340 942q0 -120 58.5 -186t158.5 -66q102 0 162.5 66.5t60.5 185.5q0 120 -61.5 192t-161.5 72q-98 0 -157.5 -72t-59.5 -192z" />
<glyph unicode=":" horiz-adv-x="591" d="M133 137q0 74 45 122t117 48q73 0 118.5 -48t45.5 -122t-45.5 -121t-118.5 -47q-72 0 -117 47t-45 121zM133 848q0 74 45 122t117 48q73 0 118.5 -48t45.5 -122t-45.5 -121t-118.5 -47q-72 0 -117 47t-45 121z" />
<glyph unicode=";" horiz-adv-x="591" d="M57 -309l123 585h252v-20l-186 -586h-189v21zM145 848q0 74 45 122t117 48q73 0 118.5 -48t45.5 -122t-45.5 -121t-118.5 -47q-72 0 -117 47t-45 121z" />
<glyph unicode="&#x3c;" d="M53 453v202l944 461h19v-223l-742 -336v-6l742 -336v-223h-19z" />
<glyph unicode="=" d="M82 219v211h962v-211h-962zM82 682v211h962v-211h-962z" />
<glyph unicode="&#x3e;" d="M111 -8v223l741 336v6l-741 336v223h18l944 -461v-202l-944 -461h-18z" />
<glyph unicode="?" horiz-adv-x="948" d="M53 1257q64 67 165 116.5t220 49.5q199 0 314.5 -102.5t115.5 -284.5q0 -66 -21 -125.5t-51 -101.5t-74.5 -81.5t-80 -62.5t-78.5 -47l-24 -137h-203l-12 267q128 48 198 114t70 162q0 72 -43.5 125t-124.5 53q-71 0 -126 -30.5t-124 -92.5zM279 137q0 75 43 122.5 t114 47.5t114.5 -48t43.5 -122t-43.5 -121t-114.5 -47t-114 47t-43 121z" />
<glyph unicode="@" horiz-adv-x="1857" d="M92 573q0 176 62.5 336.5t175.5 284t286 197t379 73.5q183 0 333.5 -60.5t249 -165t152.5 -243t54 -295.5q0 -141 -37.5 -257.5t-100 -190.5t-139.5 -114t-159 -40q-182 0 -252 131h-4q-139 -106 -273 -106q-141 0 -230 99.5t-89 258.5q0 102 29 200t82 177.5t135 128.5 t180 49q53 0 101 -17t72 -33.5t58 -45.5h2l47 72h160l-98 -545q-38 -201 96 -201q97 0 169.5 112t72.5 320q0 98 -22 185.5t-70 164t-118.5 132.5t-173.5 88t-229 32q-164 0 -301 -59t-226 -159.5t-138 -231.5t-49 -277q0 -328 171.5 -513t491.5 -185q146 0 330 53l41 -151 q-168 -64 -371 -64q-396 0 -623 223.5t-227 636.5zM725 494q0 -82 37 -129.5t112 -47.5q41 0 89.5 16.5t80.5 41.5l68 416q-59 53 -149 53q-107 0 -172.5 -102t-65.5 -248z" />
<glyph unicode="A" horiz-adv-x="1267" d="M25 0l458 1393h299l463 -1393h-274l-86 305h-500l-88 -305h-272zM453 508h360l-86 285l-90 374h-6l-94 -374z" />
<glyph unicode="B" horiz-adv-x="1243" d="M172 0v1393h459q232 0 348.5 -89.5t116.5 -281.5q0 -110 -49.5 -185.5t-124.5 -109.5v-4q227 -85 227 -332q0 -196 -110.5 -293.5t-348.5 -97.5h-518zM428 211h240q114 0 166.5 50t52.5 155q0 102 -54.5 150t-179.5 48h-225v-403zM428 811h193q113 0 163 40t50 140 q0 104 -49.5 147.5t-168.5 43.5h-188v-371z" />
<glyph unicode="C" horiz-adv-x="1155" d="M106 696q0 218 70 381t209 254.5t332 91.5q181 0 356 -90l-67 -194q-128 67 -289 67q-158 0 -253 -141.5t-95 -368.5t95 -368.5t253 -141.5q159 0 289 68l67 -195q-175 -90 -356 -90q-193 0 -332 91.5t-209 254.5t-70 381z" />
<glyph unicode="D" horiz-adv-x="1316" d="M172 0v1393h393q342 0 491.5 -173.5t149.5 -523.5t-149.5 -523t-491.5 -173h-393zM428 211h113q121 0 200 28.5t123.5 92t62 149t17.5 215.5q0 103 -10.5 177t-37.5 135t-72.5 98t-115.5 56.5t-167 19.5h-113v-971z" />
<glyph unicode="E" horiz-adv-x="1130" d="M172 0v1393h842v-211h-586v-371h524v-211h-524v-389h592v-211h-848z" />
<glyph unicode="F" horiz-adv-x="1087" d="M172 0v1393h842v-211h-586v-416h524v-211h-524v-555h-256z" />
<glyph unicode="G" horiz-adv-x="1300" d="M104 696q0 153 38.5 282.5t114.5 230t199 157.5t281 57q216 0 424 -104l-71 -197q-172 84 -353 84q-187 0 -278.5 -137t-91.5 -373q0 -114 19 -205.5t59.5 -160.5t107.5 -106.5t158 -37.5q127 0 209 43v293l-224 37v174h480v-637q-89 -56 -218.5 -91.5t-257.5 -35.5 q-144 0 -258.5 55t-187.5 153t-111.5 230t-38.5 289z" />
<glyph unicode="H" horiz-adv-x="1382" d="M172 0v1393h256v-582h526v582h256v-1393h-256v600h-526v-600h-256z" />
<glyph unicode="I" horiz-adv-x="600" d="M172 0v1393h256v-1393h-256z" />
<glyph unicode="J" horiz-adv-x="927" d="M27 115l116 178q38 -36 59.5 -54t63 -35.5t88.5 -17.5q154 0 154 240v967h256v-983q0 -223 -107 -332t-303 -109q-181 0 -327 146z" />
<glyph unicode="K" horiz-adv-x="1224" d="M172 0v1393h256v-676h4l453 676h286v-21l-489 -688l514 -664v-20h-299l-465 627h-4v-627h-256z" />
<glyph unicode="L" horiz-adv-x="1026" d="M172 0v1393h256v-1172h541v-221h-797z" />
<glyph unicode="M" horiz-adv-x="1646" d="M172 0v1393h248l287 -553l114 -275h4l113 275l289 553h248v-1393h-256v690l28 307h-2l-311 -647h-223l-310 647h-4l31 -305v-692h-256z" />
<glyph unicode="N" horiz-adv-x="1411" d="M172 0v1393h270l566 -1051h6l-31 270v781h256v-1393h-270l-566 1049h-6l31 -271v-778h-256z" />
<glyph unicode="O" horiz-adv-x="1419" d="M106 696q0 124 22.5 232.5t70.5 199.5t118 156.5t170.5 102t223.5 36.5q122 0 222 -36.5t170 -102t117.5 -156.5t70 -199.5t22.5 -232.5t-22.5 -232.5t-70 -199.5t-117.5 -156.5t-170 -102t-222 -36.5q-123 0 -223.5 36.5t-170.5 102t-118 156.5t-70.5 199.5t-22.5 232.5 zM369 696q0 -110 19 -200.5t58.5 -161t107 -109.5t157.5 -39t157 39t106.5 110t58 160.5t18.5 200.5q0 110 -18.5 200t-58 160.5t-106.5 110t-157 39.5t-157.5 -39.5t-107 -110t-58.5 -160.5t-19 -200z" />
<glyph unicode="P" horiz-adv-x="1142" d="M172 0v1393h461q213 0 325.5 -124t112.5 -331q0 -206 -113.5 -330.5t-324.5 -124.5h-205v-483h-256zM428 694h184q91 0 144 69t53 175q0 107 -52.5 175.5t-144.5 68.5h-184v-488z" />
<glyph unicode="Q" horiz-adv-x="1419" d="M106 696q0 124 22.5 232.5t70.5 199.5t118 156.5t170.5 102t223.5 36.5q122 0 222 -36.5t170 -102t117.5 -156.5t70 -199.5t22.5 -232.5q0 -412 -226 -602l322 -164l-115 -219l-485 264q-31 -6 -98 -6q-123 0 -223.5 36.5t-170.5 102t-118 156.5t-70.5 199.5t-22.5 232.5 zM369 696q0 -110 19 -200.5t58.5 -161t107 -109.5t157.5 -39t157 39t106.5 110t58 160.5t18.5 200.5q0 110 -18.5 200t-58 160.5t-106.5 110t-157 39.5t-157.5 -39.5t-107 -110t-58.5 -160.5t-19 -200z" />
<glyph unicode="R" horiz-adv-x="1263" d="M172 0v1393h528q219 0 327 -106t108 -308q0 -161 -68.5 -262.5t-204.5 -136.5l342 -547v-33h-270l-332 561h-174v-561h-256zM428 772h260q90 0 137 56t47 151q0 94 -47 148.5t-137 54.5h-260v-410z" />
<glyph unicode="S" horiz-adv-x="1067" d="M82 104l84 197q72 -50 165 -82.5t185 -32.5q98 0 152.5 53.5t54.5 143.5q0 65 -40 107t-134 79l-137 56q-299 120 -299 383q0 190 126 302.5t341 112.5q75 0 174.5 -26.5t181.5 -67.5l-78 -201q-67 35 -144 56.5t-134 21.5q-103 0 -154 -51.5t-51 -132.5q0 -118 129 -168 l135 -53q168 -66 257 -161t89 -237q0 -187 -133 -310.5t-336 -123.5q-224 0 -434 135z" />
<glyph unicode="T" horiz-adv-x="1079" d="M57 1182v211h965v-211h-354v-1182h-256v1182h-355z" />
<glyph unicode="U" horiz-adv-x="1357" d="M160 547v846h256v-840q0 -367 264 -367q136 0 199 98.5t63 268.5v840h256v-846q0 -285 -126 -431.5t-392 -146.5q-269 0 -394.5 147t-125.5 431z" />
<glyph unicode="V" horiz-adv-x="1257" d="M31 1372v21h272l232 -795l92 -377h6l94 379l225 793h277v-21l-445 -1372h-311z" />
<glyph unicode="W" horiz-adv-x="1904" d="M53 1372v21h275l161 -809l62 -346h4l61 346l187 809h299l186 -809l62 -346h4l61 346l162 809h274v-21l-340 -1372h-303l-192 819l-60 340h-4l-61 -340l-193 -819h-305z" />
<glyph unicode="X" horiz-adv-x="1179" d="M55 0v20l357 678l-357 674v21h273l262 -547h4l262 547h270v-21l-358 -674l358 -678v-20h-272l-260 547h-4l-262 -547h-273z" />
<glyph unicode="Y" horiz-adv-x="1142" d="M12 1372v21h275l282 -598h4l283 598h274v-21l-430 -807v-565h-256v565z" />
<glyph unicode="Z" horiz-adv-x="1107" d="M82 0v195l627 983v4h-588v211h889v-195l-629 -983v-4h629v-211h-928z" />
<glyph unicode="[" horiz-adv-x="657" d="M158 -406v1840h426v-129l-213 -48v-1486l213 -47v-130h-426z" />
<glyph unicode="\" horiz-adv-x="839" d="M51 1372v21h215l522 -1373v-20h-215z" />
<glyph unicode="]" horiz-adv-x="661" d="M76 -272l215 47v1478l-215 47v134h428v-1840h-428v134z" />
<glyph unicode="^" horiz-adv-x="958" d="M10 762v20l340 652h236l340 -652v-20h-250l-205 428h-6l-205 -428h-250z" />
<glyph unicode="_" horiz-adv-x="972" d="M133 -45h707v-174h-707v174z" />
<glyph unicode="`" horiz-adv-x="1087" d="M340 1442v18h262l146 -278v-21h-218z" />
<glyph unicode="a" horiz-adv-x="1054" d="M78 281q0 315 438 315h156v45q0 50 -18 86t-47.5 53t-56.5 24t-54 7q-128 0 -308 -78l-67 193q204 92 389 92q209 0 311.5 -106t102.5 -302v-610h-189l-35 88h-4q-60 -49 -141 -84t-164 -35q-148 0 -230.5 86.5t-82.5 225.5zM319 289q0 -123 127 -123q55 0 121 20t105 47 v199h-144q-209 0 -209 -143z" />
<glyph unicode="b" horiz-adv-x="1132" d="M143 0v1434h252v-519h4q35 30 63.5 49t80 36.5t108.5 17.5q124 0 213.5 -72t132.5 -189t43 -263q0 -147 -43 -264t-132.5 -189t-213.5 -72q-61 0 -118.5 21t-89.5 42.5t-72 55.5h-4l-37 -88h-187zM395 242q80 -66 176 -66q104 0 157.5 88t53.5 230t-53.5 229.5 t-157.5 87.5q-96 0 -176 -66v-503z" />
<glyph unicode="c" horiz-adv-x="919" d="M88 494q0 237 127 380.5t352 143.5q142 0 273 -62l-49 -188q-122 43 -197 43q-110 0 -179 -83t-69 -234t68.5 -234.5t179.5 -83.5q75 0 197 43l49 -188q-131 -62 -273 -62q-225 0 -352 143.5t-127 381.5z" />
<glyph unicode="d" horiz-adv-x="1132" d="M92 494q0 146 43 263t132.5 189t213.5 72q82 0 141 -28.5t113 -74.5h2v519h252v-1434h-186l-35 88h-4q-42 -34 -73.5 -55t-90 -42.5t-119.5 -21.5q-124 0 -213.5 72t-132.5 189t-43 264zM350 494q0 -142 53.5 -230t157.5 -88q96 0 176 66v503q-80 66 -176 66 q-104 0 -157.5 -87.5t-53.5 -229.5z" />
<glyph unicode="e" horiz-adv-x="1032" d="M88 496q0 142 49.5 259t152.5 190t242 73q105 0 186.5 -34.5t130.5 -94t74 -135t25 -162.5q0 -100 -12 -170h-602q8 -112 71 -182t160 -70q141 0 283 66l57 -179q-165 -88 -360 -88q-112 0 -200.5 41.5t-143.5 114.5t-84 167.5t-29 203.5zM340 586h377q2 10 2 32 q0 96 -43.5 157t-140.5 61q-87 0 -138.5 -74t-56.5 -176z" />
<glyph unicode="f" horiz-adv-x="739" d="M55 791v139l156 57v141q0 316 307 316q88 0 156 -14v-193q-66 16 -119 16q-49 0 -70.5 -31t-21.5 -100v-135h221v-196h-221v-791h-252v791h-156z" />
<glyph unicode="g" d="M90 498q0 147 42.5 262.5t131.5 186.5t213 71q27 0 52 -3.5t50.5 -13t41 -15t42 -22.5t33 -21t35.5 -25l29 -21h4l33 90h188v-936q0 -236 -120 -361.5t-341 -125.5q-185 0 -350 92l74 178q144 -80 276 -80q209 0 209 252v76h-4q-106 -98 -252 -98q-124 0 -213 69.5 t-131.5 184t-42.5 260.5zM348 498q0 -141 52 -224.5t157 -83.5q101 0 176 62v493q-80 66 -176 66q-104 0 -156.5 -85.5t-52.5 -227.5z" />
<glyph unicode="h" d="M143 0v1434h252v-527h4q44 44 114.5 77.5t150.5 33.5q158 0 243.5 -101.5t85.5 -283.5v-633h-252v604q0 100 -39.5 153.5t-117.5 53.5q-33 0 -62 -8.5t-54 -25.5t-39 -29.5t-34 -32.5v-715h-252z" />
<glyph unicode="i" horiz-adv-x="538" d="M125 1309q0 63 39.5 102t105.5 39q67 0 107.5 -39t40.5 -102t-40.5 -102.5t-107.5 -39.5q-66 0 -105.5 39.5t-39.5 102.5zM143 0v987h252v-987h-252z" />
<glyph unicode="j" horiz-adv-x="538" d="M-55 -231q50 -15 110 -15q88 0 88 144v1089h252v-1075q0 -177 -85.5 -262.5t-235.5 -85.5q-61 0 -129 14v191zM125 1309q0 63 39.5 102t105.5 39t107 -39t41 -102t-41 -102.5t-107 -39.5t-105.5 39.5t-39.5 102.5z" />
<glyph unicode="k" horiz-adv-x="1038" d="M143 0v1434h252v-891h4l310 444h274v-18l-344 -461l360 -488v-20h-288l-312 459h-4v-459h-252z" />
<glyph unicode="l" horiz-adv-x="538" d="M143 0v1434h252v-1434h-252z" />
<glyph unicode="m" horiz-adv-x="1732" d="M143 0v987h201l33 -94h4q125 125 287 125q186 0 274 -148h4q31 31 49 46.5t61 44.5t96.5 43t117.5 14q163 0 246 -100t83 -283v-635h-251v604q0 104 -36.5 155.5t-121.5 51.5q-98 0 -199 -96q6 -25 6 -80v-635h-252v604q0 104 -36 155.5t-121 51.5q-98 0 -193 -86v-725 h-252z" />
<glyph unicode="n" d="M143 0v987h203l33 -94h4q125 125 283 125q157 0 242 -101t85 -282v-635h-252v604q0 207 -157 207q-87 0 -189 -86v-725h-252z" />
<glyph unicode="o" horiz-adv-x="1116" d="M88 494q0 150 53 267.5t160.5 187t255.5 69.5q114 0 204.5 -40t148 -111t88 -166t30.5 -207q0 -232 -123 -378.5t-348 -146.5q-147 0 -255 70t-161 187.5t-53 267.5zM346 494q0 -150 55 -234t156 -84q102 0 157.5 84t55.5 234t-55.5 233.5t-157.5 83.5q-101 0 -156 -83.5 t-55 -233.5z" />
<glyph unicode="p" horiz-adv-x="1130" d="M143 -406v1393h185l37 -88h4q31 25 54 41t60 36.5t79.5 31t88.5 10.5q123 0 212 -72t132 -189t43 -263t-43 -263.5t-132 -189.5t-212 -72q-58 0 -110.5 18.5t-78 36t-63.5 48.5h-4v-478h-252zM395 242q80 -66 176 -66q104 0 156.5 87.5t52.5 230.5t-52.5 230t-156.5 87 q-96 0 -176 -66v-503z" />
<glyph unicode="q" horiz-adv-x="1130" d="M92 494q0 147 42.5 263.5t131.5 188.5t213 72q46 0 86.5 -9.5t81.5 -33t57.5 -34.5t57.5 -42h4l35 88h186v-1393h-252v478h-4q-38 -31 -63.5 -48.5t-78 -36t-110.5 -18.5q-124 0 -213 72.5t-131.5 189t-42.5 263.5zM350 494q0 -143 52.5 -230.5t156.5 -87.5q96 0 176 66 v503q-80 66 -176 66q-104 0 -156.5 -87t-52.5 -230z" />
<glyph unicode="r" horiz-adv-x="747" d="M143 0v987h205l35 -117h4q32 61 87.5 104.5t135.5 43.5q42 0 88 -12l-20 -211q-41 8 -90 8q-69 0 -117.5 -30t-75.5 -73v-700h-252z" />
<glyph unicode="s" horiz-adv-x="901" d="M76 63l74 185q147 -82 286 -82q70 0 104.5 29.5t34.5 80.5q0 45 -28 69t-92 42l-117 31q-242 65 -242 284q0 144 99.5 230t271.5 86q98 0 173.5 -17.5t158.5 -54.5l-68 -182q-130 57 -258 57q-66 0 -99.5 -27.5t-33.5 -78.5q0 -40 27 -63t86 -42l114 -30 q118 -33 185 -101t67 -190q0 -150 -102 -235t-273 -85q-208 0 -368 94z" />
<glyph unicode="t" horiz-adv-x="790" d="M57 791v139l162 57v230h252v-230h256v-196h-256v-502q0 -113 107 -113q64 0 143 27v-203q-121 -31 -209 -31q-149 0 -221 69t-72 212v541h-162z" />
<glyph unicode="u" horiz-adv-x="1116" d="M133 352v635h252v-604q0 -207 150 -207q18 0 34.5 2.5t33 9t28 11.5t27 15.5t22 15.5t22.5 17.5t19 14.5v725h252v-987h-205l-35 94h-2q-125 -125 -274 -125q-158 0 -241 100.5t-83 282.5z" />
<glyph unicode="v" horiz-adv-x="1036" d="M41 967v20h248l176 -571l51 -207h4l51 207l177 571h247v-20l-340 -967h-274z" />
<glyph unicode="w" horiz-adv-x="1595" d="M55 967v20h242l137 -581l29 -199h4l41 199l154 581h272l153 -581l41 -199h5l28 199l135 581h244v-20l-264 -967h-277l-163 584l-37 202h-4l-37 -202l-164 -584h-275z" />
<glyph unicode="x" horiz-adv-x="1026" d="M53 0v20l287 474l-287 473v20h266l193 -362h4l193 362h264v-20l-287 -473l287 -474v-20h-262l-195 360h-4l-193 -360h-266z" />
<glyph unicode="y" horiz-adv-x="1021" d="M37 967v20h256l168 -545l49 -204h6l47 204l160 545h256v-20l-383 -1090q-59 -164 -143 -238.5t-203 -74.5q-78 0 -176 24v185q93 -19 133 -19q58 0 90.5 33t58.5 109l39 114z" />
<glyph unicode="z" horiz-adv-x="903" d="M78 0v139l424 654v4h-396v190h705v-139l-426 -653v-5h426v-190h-733z" />
<glyph unicode="{" horiz-adv-x="714" d="M61 420v188q74 0 119 41.5t45 118.5v291q0 93 16 159t54 116.5t106 75t168 24.5h68v-144q-199 0 -199 -217v-297q0 -119 -36 -180.5t-121 -79.5v-4q85 -18 121 -79.5t36 -180.5v-297q0 -217 199 -217v-144h-68q-100 0 -168 24.5t-106 75t-54 116.5t-16 159v291 q0 77 -45 118.5t-119 41.5z" />
<glyph unicode="|" horiz-adv-x="481" d="M158 -406v1840h166v-1840h-166z" />
<glyph unicode="}" horiz-adv-x="712" d="M78 -262q104 0 150 54.5t46 162.5v297q0 119 36.5 180t121.5 80v4q-85 19 -121.5 80t-36.5 180v297q0 108 -46 162.5t-150 54.5v144h67q100 0 168 -24.5t105.5 -75t53 -116.5t15.5 -159v-291q0 -77 45.5 -118.5t120.5 -41.5v-188q-75 0 -120.5 -41.5t-45.5 -118.5v-291 q0 -93 -15.5 -159t-53 -116.5t-105.5 -75t-168 -24.5h-67v144z" />
<glyph unicode="~" horiz-adv-x="1064" d="M90 582q41 64 108 110.5t140 46.5q53 0 112.5 -24t104.5 -52.5t103 -52.5t108 -24q38 0 64 15.5t55 55.5l90 -125q-102 -147 -238 -147q-48 0 -107.5 24t-106 53t-102.5 53t-97 24q-39 0 -79 -21.5t-65 -60.5z" />
<glyph unicode="&#xa1;" horiz-adv-x="534" d="M111 850q0 75 43 121.5t116 46.5q71 0 114.5 -47t43.5 -121t-43.5 -122t-114.5 -48q-72 0 -115.5 47.5t-43.5 122.5zM133 -90l57 596h156l60 -596v-316h-273v316z" />
<glyph unicode="&#xa2;" d="M184 494q0 213 104.5 351t291.5 167v172h163v-172q131 -23 193 -56l-49 -188q-85 30 -144 39v-627q59 9 144 39l49 -188q-62 -33 -193 -56v-172h-163v172q-189 26 -292.5 164.5t-103.5 354.5zM442 494q0 -219 138 -293v583q-65 -35 -101.5 -109t-36.5 -181z" />
<glyph unicode="&#xa3;" d="M111 586v194h127q-13 110 -13 221q0 201 113.5 311.5t325.5 110.5q192 0 362 -90l-68 -198q-152 71 -284 71q-85 0 -136 -48.5t-51 -127.5q0 -98 19 -250h315v-194h-289q7 -50 7 -121q0 -65 -27.5 -136t-65.5 -114v-4h558v-211h-852v184q124 76 124 230q0 54 -12 172 h-153z" />
<glyph unicode="&#xa4;" horiz-adv-x="1140" d="M94 178l168 184q-39 79 -39 191q0 108 41 192l-170 187l135 141l170 -180q68 39 166 39q103 0 170 -43l178 184l134 -141l-175 -193q39 -79 39 -186q0 -109 -39 -186l175 -189l-134 -143l-174 182q-70 -43 -174 -43q-100 0 -168 39l-168 -178zM432 553q0 -90 37 -140.5 t96 -50.5q63 0 100 50t37 141t-37 140.5t-100 49.5q-59 0 -96 -50t-37 -140z" />
<glyph unicode="&#xa5;" d="M43 1372v21h274l246 -557h4l242 557h274v-21l-290 -573h239v-195h-338v-158h338v-194h-338v-252h-256v252h-346v194h346v158h-346v195h246z" />
<glyph unicode="&#xa6;" horiz-adv-x="485" d="M160 274h166v-680h-166v680zM160 754v680h166v-680h-166z" />
<glyph unicode="&#xa7;" horiz-adv-x="1103" d="M104 -262l84 221q208 -113 355 -113q91 0 142.5 35.5t51.5 91.5q0 48 -30.5 85.5t-112.5 70.5l-215 86q-256 103 -256 307q0 151 162 242v4q-162 113 -162 281t118.5 271t329.5 103q218 0 377 -75l-76 -211q-151 71 -303 71q-91 0 -137.5 -40t-46.5 -95q0 -99 129 -147 l178 -68q160 -61 233.5 -142t73.5 -194q0 -118 -163 -246v-4q76 -42 119.5 -114.5t43.5 -149.5q0 -175 -125 -276t-327 -101q-223 0 -443 107zM377 578q0 -53 23 -87.5t79 -58.5l211 -88q55 44 55 121q0 101 -96 145l-217 90q-26 -18 -40.5 -52t-14.5 -70z" />
<glyph unicode="&#xa8;" horiz-adv-x="1087" d="M195 1311q0 63 39.5 102t105.5 39q67 0 107 -39t40 -102q0 -64 -40 -103t-107 -39q-66 0 -105.5 39.5t-39.5 102.5zM600 1311q0 63 39.5 102t105.5 39q67 0 107.5 -39t40.5 -102t-40.5 -102.5t-107.5 -39.5q-66 0 -105.5 39.5t-39.5 102.5z" />
<glyph unicode="&#xa9;" horiz-adv-x="1662" d="M104 696q0 152 56 287t152.5 231.5t231.5 152.5t287 56t287 -56t232 -152.5t153 -231.5t56 -287t-56 -287t-153 -231.5t-232 -152.5t-287 -56t-287 56t-231.5 152.5t-152.5 231.5t-56 287zM250 696q0 -164 79 -299t215.5 -211.5t301.5 -76.5q247 0 407 167.5t160 419.5 q0 165 -75.5 299.5t-209 211.5t-297.5 77t-297.5 -77t-208.5 -211.5t-75 -299.5zM449 696q0 184 103 292t292 108q121 0 231 -49l-49 -148q-89 41 -182 41q-88 0 -144.5 -68t-56.5 -176t56.5 -175.5t144.5 -67.5q93 0 182 41l49 -148q-110 -49 -231 -49q-189 0 -292 108 t-103 291z" />
<glyph unicode="&#xaa;" horiz-adv-x="833" d="M137 895q0 203 254 203h103v22q0 88 -95 88q-91 0 -194 -41l-37 142q123 49 242 49q127 0 195.5 -70.5t68.5 -193.5v-377h-133l-29 55h-2q-31 -29 -79 -51.5t-97 -22.5q-99 0 -148 54.5t-49 142.5zM154 412v157h520v-157h-520zM317 913q0 -67 62 -67q29 0 61.5 12 t53.5 27v98h-84q-44 0 -68.5 -18.5t-24.5 -51.5z" />
<glyph unicode="&#xab;" horiz-adv-x="1083" d="M74 541v24l301 449l168 -101l-187 -362l189 -361l-170 -98zM516 541v24l301 449l168 -101l-186 -362l188 -361l-170 -98z" />
<glyph unicode="&#xac;" d="M74 451v211h962v-459h-170v248h-792z" />
<glyph unicode="&#xad;" horiz-adv-x="843" d="M133 451v211h578v-211h-578z" />
<glyph unicode="&#xae;" horiz-adv-x="1138" d="M102 1149q0 199 134.5 334t332.5 135t332.5 -135t134.5 -334q0 -198 -134.5 -332.5t-332.5 -134.5t-332.5 134.5t-134.5 332.5zM215 1149q0 -153 105 -257t260 -104q151 0 247.5 103.5t96.5 257.5q0 153 -101 256.5t-254 103.5t-253.5 -103.5t-100.5 -256.5zM385 932v446 h203q166 0 166 -141q0 -105 -101 -133l123 -162v-10h-129l-108 164h-41v-164h-113zM498 1186h84q29 0 44 13.5t15 35.5q0 49 -59 49h-84v-98z" />
<glyph unicode="&#xaf;" horiz-adv-x="1087" d="M276 1186v211h535v-211h-535z" />
<glyph unicode="&#xb0;" horiz-adv-x="886" d="M94 1085q0 154 99.5 246t250.5 92q148 0 248.5 -92t100.5 -246q0 -156 -100.5 -250t-248.5 -94q-151 0 -250.5 93.5t-99.5 250.5zM285 1085q0 -76 45.5 -123t113.5 -47q69 0 113.5 46.5t44.5 123.5q0 72 -45 120t-113 48q-66 0 -112.5 -48.5t-46.5 -119.5z" />
<glyph unicode="&#xb1;" d="M82 0v211h962v-211h-962zM82 676v211h381v395h199v-395h382v-211h-382v-295h-199v295h-381z" />
<glyph unicode="&#xb2;" horiz-adv-x="638" d="M55 1528q39 48 102.5 85.5t151.5 37.5q111 0 184.5 -62t73.5 -174q0 -123 -129 -229l-131 -111v-6h271v-151h-521v137l279 241q51 42 51 107q0 39 -24 64.5t-64 25.5q-29 0 -57.5 -14t-43 -27t-44.5 -43z" />
<glyph unicode="&#xb3;" horiz-adv-x="634" d="M43 956l45 150q85 -45 188 -45q61 0 90 18.5t29 59.5q0 34 -24 47.5t-80 13.5h-133v152h131q88 0 88 71q0 70 -96 70q-100 0 -172 -35l-50 146q111 47 226 47q131 0 201.5 -52.5t70.5 -150.5q0 -68 -32 -106.5t-76 -47.5v-2q126 -43 126 -180q0 -99 -73 -155t-226 -56 q-128 0 -233 55z" />
<glyph unicode="&#xb4;" horiz-adv-x="1087" d="M340 1161v21l145 278h263v-18l-191 -281h-217z" />
<glyph unicode="&#xb5;" horiz-adv-x="1114" d="M154 -406v1393h252v-625q5 -94 40 -140t109 -46q18 0 34.5 2.5t33 9t28 11.5t27 15.5t22 15.5t22.5 17.5t19 14.5v725h252v-987h-205l-34 94h-2q-125 -125 -275 -125q-33 0 -86 17l15 -131v-261h-252z" />
<glyph unicode="&#xb6;" horiz-adv-x="1114" d="M57 1030q0 167 98 265t244 98h658v-154h-176v-1645h-162v1645h-156v-1645h-164v1078q-147 0 -244.5 95.5t-97.5 262.5z" />
<glyph unicode="&#xb7;" horiz-adv-x="550" d="M113 588q0 74 45 122t116 48q73 0 118.5 -48t45.5 -122t-45.5 -121t-118.5 -47q-72 0 -116.5 47t-44.5 121z" />
<glyph unicode="&#xb8;" horiz-adv-x="1087" d="M367 -412l24 129q43 -16 80 -16q64 0 64 51q0 16 -7 27t-16.5 16.5t-26.5 8t-27.5 3t-29.5 0.5l-6 13l67 194h148l-43 -106q61 -11 94 -49.5t33 -100.5q0 -91 -56.5 -142.5t-160.5 -51.5q-80 0 -137 24z" />
<glyph unicode="&#xb9;" horiz-adv-x="520" d="M39 1366v160l252 110h131v-718h-174v530h-2l-193 -82h-14z" />
<glyph unicode="&#xba;" horiz-adv-x="843" d="M111 1028q0 141 83.5 235.5t227.5 94.5q145 0 228 -94.5t83 -235.5t-83 -235.5t-228 -94.5q-144 0 -227.5 94.5t-83.5 235.5zM160 412v157h522v-157h-522zM295 1028q0 -88 35.5 -130t91.5 -42q58 0 92.5 41.5t34.5 130.5q0 88 -34.5 130t-92.5 42q-55 0 -91 -42.5 t-36 -129.5z" />
<glyph unicode="&#xbb;" horiz-adv-x="1083" d="M96 915l170 99l301 -449v-24l-301 -449l-168 101l187 362zM539 915l170 99l301 -449v-24l-301 -449l-168 101l186 362z" />
<glyph unicode="&#xbc;" horiz-adv-x="1486" d="M74 1120v160l252 111h131v-719h-174v530h-2l-193 -82h-14zM170 0v20l934 1373h213v-21l-934 -1372h-213zM823 152v139l166 428h178l-153 -412v-2h139v182h174v-182h78v-153h-78v-152h-174v152h-330z" />
<glyph unicode="&#xbd;" horiz-adv-x="1533" d="M72 1116v160l252 110h131v-718h-174v530h-2l-193 -82h-14zM170 0v20l934 1373h213v-21l-934 -1372h-213zM920 610q39 48 102.5 85.5t151.5 37.5q111 0 184.5 -61.5t73.5 -173.5q0 -124 -129 -230l-132 -110v-6h271v-152h-520v137l278 242q51 42 51 106q0 39 -24 64.5 t-64 25.5q-29 0 -57.5 -13.5t-43.5 -27t-44 -42.5z" />
<glyph unicode="&#xbe;" horiz-adv-x="1613" d="M80 705l45 149q85 -45 188 -45q61 0 90 18.5t29 59.5q0 34 -24 47.5t-80 13.5h-133v152h131q88 0 88 71q0 70 -97 70q-100 0 -172 -35l-49 146q111 47 226 47q131 0 201.5 -52.5t70.5 -150.5q0 -68 -32.5 -106.5t-76.5 -47.5v-2q127 -43 127 -180q0 -99 -73 -155 t-226 -56q-126 0 -233 56zM260 0v20l934 1373h213v-21l-934 -1372h-213zM954 152v139l166 428h178l-153 -412v-2h139v182h174v-182h78v-153h-78v-152h-174v152h-330z" />
<glyph unicode="&#xbf;" horiz-adv-x="935" d="M72 -49q0 80 29 150.5t78.5 121.5t96.5 84.5t101 61.5l24 137h203l12 -266q-268 -102 -268 -277q0 -72 43.5 -125t124.5 -53q71 0 126 30.5t124 92.5l121 -178q-64 -67 -165 -116.5t-220 -49.5q-199 0 -314.5 102.5t-115.5 284.5zM346 850q0 74 43.5 121t114.5 47 t114.5 -47t43.5 -121t-43.5 -122t-114.5 -48t-114.5 48t-43.5 122z" />
<glyph unicode="&#xc0;" horiz-adv-x="1267" d="M25 0l458 1393h299l463 -1393h-274l-86 305h-500l-88 -305h-272zM365 1817v18h278l129 -279v-20h-235zM453 508h360l-86 285l-90 374h-6l-94 -374z" />
<glyph unicode="&#xc1;" horiz-adv-x="1267" d="M25 0l458 1393h299l463 -1393h-274l-86 305h-500l-88 -305h-272zM453 508h360l-86 285l-90 374h-6l-94 -374zM500 1536v20l129 279h278v-18l-172 -281h-235z" />
<glyph unicode="&#xc2;" horiz-adv-x="1267" d="M25 0l458 1393h299l463 -1393h-274l-86 305h-500l-88 -305h-272zM313 1536v20l209 279h228l208 -279v-20h-206l-117 162l-115 -162h-207zM453 508h360l-86 285l-90 374h-6l-94 -374z" />
<glyph unicode="&#xc3;" horiz-adv-x="1267" d="M25 0l458 1393h299l463 -1393h-274l-86 305h-500l-88 -305h-272zM313 1702q30 59 83.5 97t113.5 38q48 0 96.5 -23t93.5 -46t84 -23q70 0 123 70l51 -140q-31 -64 -84.5 -100.5t-109.5 -36.5q-58 0 -148.5 46t-128.5 46q-40 0 -68 -17t-54 -54zM453 508h360l-86 285 l-90 374h-6l-94 -374z" />
<glyph unicode="&#xc4;" horiz-adv-x="1267" d="M25 0l458 1393h299l463 -1393h-274l-86 305h-500l-88 -305h-272zM248 1675q0 63 39.5 102.5t105.5 39.5q67 0 107.5 -39.5t40.5 -102.5t-40.5 -102t-107.5 -39q-66 0 -105.5 39t-39.5 102zM453 508h360l-86 285l-90 374h-6l-94 -374zM727 1675q0 63 39.5 102.5 t105.5 39.5q67 0 107.5 -39.5t40.5 -102.5t-40.5 -102t-107.5 -39q-66 0 -105.5 39t-39.5 102z" />
<glyph unicode="&#xc5;" horiz-adv-x="1261" d="M20 0l469 1348q-39 30 -63.5 78.5t-24.5 101.5q0 105 62.5 167t163.5 62t162 -62t61 -167q0 -53 -23 -99.5t-61 -76.5l475 -1352h-274l-86 305h-500l-88 -305h-273zM449 508h360l-86 285l-90 374h-6l-95 -374zM549 1528q0 -38 21 -59t57 -21q35 0 55 21t20 59 q0 37 -20 58.5t-55 21.5t-56.5 -21.5t-21.5 -58.5z" />
<glyph unicode="&#xc6;" horiz-adv-x="1787" d="M-20 0v20l743 1373h948v-211h-586v-371h525v-211h-525v-389h592v-211h-848v305h-423l-160 -305h-266zM518 508h311v342l17 307h-6l-150 -307z" />
<glyph unicode="&#xc7;" horiz-adv-x="1155" d="M106 696q0 218 70 381t209 254.5t332 91.5q181 0 356 -90l-67 -194q-128 67 -289 67q-158 0 -253 -141.5t-95 -368.5t95 -368.5t253 -141.5q159 0 289 68l67 -195q-155 -81 -334 -90l-22 -61q61 -11 94 -49.5t33 -100.5q0 -91 -56.5 -142.5t-160.5 -51.5q-80 0 -140 24 l27 129q43 -16 80 -16q63 0 63 51q0 20 -9 32t-27.5 16.5t-32 5.5t-37.5 1l-8 13l53 160q-235 41 -362.5 231t-127.5 485z" />
<glyph unicode="&#xc8;" horiz-adv-x="1130" d="M172 0v1393h842v-211h-586v-371h524v-211h-524v-389h592v-211h-848zM313 1817v18h279l129 -279v-20h-236z" />
<glyph unicode="&#xc9;" horiz-adv-x="1130" d="M172 0v1393h842v-211h-586v-371h524v-211h-524v-389h592v-211h-848zM475 1536v20l129 279h279v-18l-172 -281h-236z" />
<glyph unicode="&#xca;" horiz-adv-x="1130" d="M172 0v1393h842v-211h-586v-371h524v-211h-524v-389h592v-211h-848zM268 1536v20l209 279h228l208 -279v-20h-206l-117 162l-115 -162h-207z" />
<glyph unicode="&#xcb;" horiz-adv-x="1130" d="M172 0v1393h842v-211h-586v-371h524v-211h-524v-389h592v-211h-848zM197 1675q0 63 39.5 102.5t105.5 39.5q67 0 107 -39t40 -103q0 -63 -40 -102t-107 -39q-66 0 -105.5 39t-39.5 102zM676 1675q0 63 39.5 102.5t105.5 39.5q67 0 107.5 -39.5t40.5 -102.5t-40.5 -102 t-107.5 -39q-66 0 -105.5 39t-39.5 102z" />
<glyph unicode="&#xcc;" horiz-adv-x="600" d="M12 1817v18h279l129 -279v-20h-236zM172 0v1393h256v-1393h-256z" />
<glyph unicode="&#xcd;" horiz-adv-x="600" d="M172 0v1393h256v-1393h-256zM176 1536v20l129 279h279v-18l-172 -281h-236z" />
<glyph unicode="&#xce;" horiz-adv-x="600" d="M-27 1536v20l209 279h228l208 -279v-20h-206l-117 162l-115 -162h-207zM172 0v1393h256v-1393h-256z" />
<glyph unicode="&#xcf;" horiz-adv-x="600" d="M-94 1675q0 63 39.5 102.5t105.5 39.5q67 0 107.5 -39.5t40.5 -102.5t-40.5 -102t-107.5 -39q-66 0 -105.5 39t-39.5 102zM172 0v1393h256v-1393h-256zM385 1675q0 63 39.5 102.5t105.5 39.5q67 0 107.5 -39.5t40.5 -102.5t-40.5 -102t-107.5 -39q-66 0 -105.5 39 t-39.5 102z" />
<glyph unicode="&#xd0;" horiz-adv-x="1320" d="M86 582v211h88v600h393q342 0 491.5 -173.5t149.5 -523.5t-149.5 -523t-491.5 -173h-393v582h-88zM430 211h113q121 0 200 28.5t123.5 92t62 149t17.5 215.5q0 103 -10.5 177t-37.5 135t-72.5 98t-115.5 56.5t-167 19.5h-113v-389h209v-211h-209v-371z" />
<glyph unicode="&#xd1;" horiz-adv-x="1411" d="M172 0v1393h270l566 -1051h6l-31 270v781h256v-1393h-270l-566 1049h-6l31 -271v-778h-256zM369 1702q30 59 83 97t113 38q48 0 97 -23t94 -46t84 -23q70 0 123 70l51 -140q-31 -64 -85 -100.5t-110 -36.5q-58 0 -148 46t-128 46q-73 0 -123 -71z" />
<glyph unicode="&#xd2;" horiz-adv-x="1419" d="M106 696q0 124 22.5 232.5t70.5 199.5t118 156.5t170.5 102t223.5 36.5q122 0 222 -36.5t170 -102t117.5 -156.5t70 -199.5t22.5 -232.5t-22.5 -232.5t-70 -199.5t-117.5 -156.5t-170 -102t-222 -36.5q-123 0 -223.5 36.5t-170.5 102t-118 156.5t-70.5 199.5t-22.5 232.5 zM369 696q0 -110 19 -200.5t58.5 -161t107 -109.5t157.5 -39t157 39t106.5 110t58 160.5t18.5 200.5q0 110 -18.5 200t-58 160.5t-106.5 110t-157 39.5t-157.5 -39.5t-107 -110t-58.5 -160.5t-19 -200zM459 1817v18h278l129 -279v-20h-235z" />
<glyph unicode="&#xd3;" horiz-adv-x="1419" d="M106 696q0 124 22.5 232.5t70.5 199.5t118 156.5t170.5 102t223.5 36.5q122 0 222 -36.5t170 -102t117.5 -156.5t70 -199.5t22.5 -232.5t-22.5 -232.5t-70 -199.5t-117.5 -156.5t-170 -102t-222 -36.5q-123 0 -223.5 36.5t-170.5 102t-118 156.5t-70.5 199.5t-22.5 232.5 zM369 696q0 -110 19 -200.5t58.5 -161t107 -109.5t157.5 -39t157 39t106.5 110t58 160.5t18.5 200.5q0 110 -18.5 200t-58 160.5t-106.5 110t-157 39.5t-157.5 -39.5t-107 -110t-58.5 -160.5t-19 -200zM590 1536v20l129 279h278v-18l-172 -281h-235z" />
<glyph unicode="&#xd4;" horiz-adv-x="1419" d="M106 696q0 124 22.5 232.5t70.5 199.5t118 156.5t170.5 102t223.5 36.5q122 0 222 -36.5t170 -102t117.5 -156.5t70 -199.5t22.5 -232.5t-22.5 -232.5t-70 -199.5t-117.5 -156.5t-170 -102t-222 -36.5q-123 0 -223.5 36.5t-170.5 102t-118 156.5t-70.5 199.5t-22.5 232.5 zM369 696q0 -110 19 -200.5t58.5 -161t107 -109.5t157.5 -39t157 39t106.5 110t58 160.5t18.5 200.5q0 110 -18.5 200t-58 160.5t-106.5 110t-157 39.5t-157.5 -39.5t-107 -110t-58.5 -160.5t-19 -200zM401 1536v20l209 279h228l209 -279v-20h-207l-117 162l-115 -162h-207z " />
<glyph unicode="&#xd5;" horiz-adv-x="1419" d="M106 696q0 124 22.5 232.5t70.5 199.5t118 156.5t170.5 102t223.5 36.5q122 0 222 -36.5t170 -102t117.5 -156.5t70 -199.5t22.5 -232.5t-22.5 -232.5t-70 -199.5t-117.5 -156.5t-170 -102t-222 -36.5q-123 0 -223.5 36.5t-170.5 102t-118 156.5t-70.5 199.5t-22.5 232.5 zM369 696q0 -110 19 -200.5t58.5 -161t107 -109.5t157.5 -39t157 39t106.5 110t58 160.5t18.5 200.5q0 110 -18.5 200t-58 160.5t-106.5 110t-157 39.5t-157.5 -39.5t-107 -110t-58.5 -160.5t-19 -200zM395 1702q30 59 83.5 97t113.5 38q48 0 96.5 -23t93.5 -46t84 -23 q70 0 123 70l51 -140q-31 -64 -84.5 -100.5t-109.5 -36.5q-58 0 -148.5 46t-128.5 46q-73 0 -123 -71z" />
<glyph unicode="&#xd6;" horiz-adv-x="1419" d="M106 696q0 124 22.5 232.5t70.5 199.5t118 156.5t170.5 102t223.5 36.5q122 0 222 -36.5t170 -102t117.5 -156.5t70 -199.5t22.5 -232.5t-22.5 -232.5t-70 -199.5t-117.5 -156.5t-170 -102t-222 -36.5q-123 0 -223.5 36.5t-170.5 102t-118 156.5t-70.5 199.5t-22.5 232.5 zM330 1675q0 63 39.5 102.5t105.5 39.5q67 0 107.5 -39.5t40.5 -102.5t-40.5 -102t-107.5 -39q-66 0 -105.5 39t-39.5 102zM369 696q0 -110 19 -200.5t58.5 -161t107 -109.5t157.5 -39t157 39t106.5 110t58 160.5t18.5 200.5q0 110 -18.5 200t-58 160.5t-106.5 110 t-157 39.5t-157.5 -39.5t-107 -110t-58.5 -160.5t-19 -200zM809 1675q0 63 39.5 102.5t105.5 39.5q67 0 107.5 -39.5t40.5 -102.5t-40.5 -102t-107.5 -39q-66 0 -105.5 39t-39.5 102z" />
<glyph unicode="&#xd7;" d="M125 233l301 322l-301 322l133 141l303 -322l305 322l135 -141l-305 -322l305 -322l-135 -141l-305 322l-303 -322z" />
<glyph unicode="&#xd8;" horiz-adv-x="1419" d="M106 696q0 124 22.5 232.5t70.5 199.5t118 156.5t170.5 102t223.5 36.5q165 0 290 -67l68 110l152 -90l-82 -131q174 -188 174 -549q0 -124 -22.5 -232.5t-70 -199.5t-117.5 -156.5t-170 -102t-222 -36.5q-174 0 -310 76l-71 -108l-144 92l82 129q-162 188 -162 538z M369 696q0 -180 47 -297l465 758q-74 49 -170 49q-90 0 -157.5 -39.5t-107 -110t-58.5 -160.5t-19 -200zM524 244q76 -58 187 -58q90 0 157 39t106.5 110t58 160.5t18.5 200.5q0 190 -56 316z" />
<glyph unicode="&#xd9;" horiz-adv-x="1357" d="M160 547v846h256v-840q0 -367 264 -367q136 0 199 98.5t63 268.5v840h256v-846q0 -285 -126 -431.5t-392 -146.5q-269 0 -394.5 147t-125.5 431zM397 1817v18h279l129 -279v-20h-236z" />
<glyph unicode="&#xda;" horiz-adv-x="1357" d="M160 547v846h256v-840q0 -367 264 -367q136 0 199 98.5t63 268.5v840h256v-846q0 -285 -126 -431.5t-392 -146.5q-269 0 -394.5 147t-125.5 431zM553 1536v20l129 279h279v-18l-173 -281h-235z" />
<glyph unicode="&#xdb;" horiz-adv-x="1357" d="M160 547v846h256v-840q0 -367 264 -367q136 0 199 98.5t63 268.5v840h256v-846q0 -285 -126 -431.5t-392 -146.5q-269 0 -394.5 147t-125.5 431zM348 1536v20l209 279h227l209 -279v-20h-207l-116 162l-115 -162h-207z" />
<glyph unicode="&#xdc;" horiz-adv-x="1357" d="M160 547v846h256v-840q0 -367 264 -367q136 0 199 98.5t63 268.5v840h256v-846q0 -285 -126 -431.5t-392 -146.5q-269 0 -394.5 147t-125.5 431zM283 1675q0 63 39.5 102.5t105.5 39.5q67 0 107 -39t40 -103q0 -63 -40 -102t-107 -39q-66 0 -105.5 39t-39.5 102z M762 1675q0 63 39.5 102.5t105.5 39.5q67 0 107.5 -39.5t40.5 -102.5t-40.5 -102t-107.5 -39q-66 0 -105.5 39t-39.5 102z" />
<glyph unicode="&#xdd;" horiz-adv-x="1142" d="M12 1372v21h275l282 -598h4l283 598h274v-21l-430 -807v-565h-256v565zM451 1536v20l129 279h278v-18l-172 -281h-235z" />
<glyph unicode="&#xde;" horiz-adv-x="1163" d="M172 0v1393h256v-230h223q111 0 193 -33t131 -94.5t72.5 -143t23.5 -183.5t-24 -183.5t-73.5 -143t-131 -95t-191.5 -33.5h-223v-254h-256zM428 465h203q89 0 133.5 68t44.5 176q0 109 -44.5 176t-133.5 67h-203v-487z" />
<glyph unicode="&#xdf;" horiz-adv-x="1206" d="M143 0v987q0 222 119 339.5t322 117.5q201 0 320.5 -107t119.5 -276q0 -221 -143 -291v-4q102 -42 170.5 -132.5t68.5 -232.5q0 -432 -485 -432q-69 0 -100 8v213q62 -4 100 -4q117 0 172 56.5t55 175.5q0 104 -61.5 159.5t-182.5 55.5h-49v225h47q71 0 111.5 47 t40.5 139q0 201 -184 201q-100 0 -144.5 -63t-44.5 -203v-979h-252z" />
<glyph unicode="&#xe0;" horiz-adv-x="1054" d="M78 281q0 315 438 315h156v45q0 50 -18 86t-47.5 53t-56.5 24t-54 7q-128 0 -308 -78l-67 193q204 92 389 92q209 0 311.5 -106t102.5 -302v-610h-189l-35 88h-4q-60 -49 -141 -84t-164 -35q-148 0 -230.5 86.5t-82.5 225.5zM248 1442v18h262l145 -278v-21h-217zM319 289 q0 -123 127 -123q55 0 121 20t105 47v199h-144q-209 0 -209 -143z" />
<glyph unicode="&#xe1;" horiz-adv-x="1054" d="M78 281q0 315 438 315h156v45q0 50 -18 86t-47.5 53t-56.5 24t-54 7q-128 0 -308 -78l-67 193q204 92 389 92q209 0 311.5 -106t102.5 -302v-610h-189l-35 88h-4q-60 -49 -141 -84t-164 -35q-148 0 -230.5 86.5t-82.5 225.5zM319 289q0 -123 127 -123q55 0 121 20t105 47 v199h-144q-209 0 -209 -143zM401 1161v21l146 278h262v-18l-191 -281h-217z" />
<glyph unicode="&#xe2;" horiz-adv-x="1054" d="M78 281q0 315 438 315h156v45q0 50 -18 86t-47.5 53t-56.5 24t-54 7q-128 0 -308 -78l-67 193q204 92 389 92q209 0 311.5 -106t102.5 -302v-610h-189l-35 88h-4q-60 -49 -141 -84t-164 -35q-148 0 -230.5 86.5t-82.5 225.5zM227 1161v21l168 278h273l168 -278v-21h-207 l-99 162l-96 -162h-207zM319 289q0 -123 127 -123q55 0 121 20t105 47v199h-144q-209 0 -209 -143z" />
<glyph unicode="&#xe3;" horiz-adv-x="1054" d="M78 281q0 315 438 315h156v45q0 50 -18 86t-47.5 53t-56.5 24t-54 7q-128 0 -308 -78l-67 193q204 92 389 92q209 0 311.5 -106t102.5 -302v-610h-189l-35 88h-4q-60 -49 -141 -84t-164 -35q-148 0 -230.5 86.5t-82.5 225.5zM207 1325q30 59 83 97t113 38q48 0 97 -23 t94 -46t84 -23q70 0 123 70l51 -140q-31 -64 -85 -100.5t-110 -36.5q-58 0 -148 46t-128 46q-73 0 -123 -71zM319 289q0 -123 127 -123q55 0 121 20t105 47v199h-144q-209 0 -209 -143z" />
<glyph unicode="&#xe4;" horiz-adv-x="1054" d="M78 281q0 315 438 315h156v45q0 50 -18 86t-47.5 53t-56.5 24t-54 7q-128 0 -308 -78l-67 193q204 92 389 92q209 0 311.5 -106t102.5 -302v-610h-189l-35 88h-4q-60 -49 -141 -84t-164 -35q-148 0 -230.5 86.5t-82.5 225.5zM180 1311q0 63 40 102t106 39q67 0 107 -39 t40 -102q0 -64 -40 -103t-107 -39q-66 0 -106 39.5t-40 102.5zM319 289q0 -123 127 -123q55 0 121 20t105 47v199h-144q-209 0 -209 -143zM586 1311q0 63 39.5 102t105.5 39q67 0 107.5 -39t40.5 -102t-40.5 -102.5t-107.5 -39.5q-66 0 -105.5 39.5t-39.5 102.5z" />
<glyph unicode="&#xe5;" horiz-adv-x="1054" d="M78 281q0 315 438 315h156v45q0 50 -18 86t-47.5 53t-56.5 24t-54 7q-128 0 -308 -78l-67 193q204 92 389 92q209 0 311.5 -106t102.5 -302v-610h-189l-35 88h-4q-60 -49 -141 -84t-164 -35q-148 0 -230.5 86.5t-82.5 225.5zM305 1317q0 104 62 163.5t163 59.5 t162.5 -59.5t61.5 -163.5q0 -107 -61 -166t-163 -59t-163.5 59t-61.5 166zM319 289q0 -123 127 -123q55 0 121 20t105 47v199h-144q-209 0 -209 -143zM453 1317q0 -38 21 -60t56 -22t55.5 22t20.5 60q0 37 -20.5 60.5t-55.5 23.5t-56 -23.5t-21 -60.5z" />
<glyph unicode="&#xe6;" horiz-adv-x="1605" d="M78 281q0 315 432 315h162v45q0 50 -19 86t-49 53t-57.5 24t-54.5 7q-124 0 -304 -78l-67 193q204 92 385 92q100 0 181 -35.5t128 -101.5q112 137 301 137q84 0 152.5 -22.5t115.5 -62t78.5 -94t45.5 -116t14 -131.5q0 -94 -13 -170h-581q8 -113 66 -182.5t155 -69.5 q130 0 272 66l58 -179q-165 -88 -351 -88q-122 0 -206.5 45.5t-143.5 135.5q-33 -39 -64 -67t-76.5 -56.5t-105 -43t-131.5 -14.5q-153 0 -238 84.5t-85 227.5zM319 293q0 -127 123 -127q90 0 159 74t69 192h-156q-94 0 -144.5 -36t-50.5 -103zM934 586h356q2 10 2 32 q0 218 -174 218q-85 0 -132 -73t-52 -177z" />
<glyph unicode="&#xe7;" horiz-adv-x="923" d="M90 494q0 237 127 380.5t352 143.5q142 0 273 -62l-49 -188q-122 43 -197 43q-110 0 -179 -83t-69 -234t68.5 -234.5t179.5 -83.5q75 0 197 43l49 -188q-119 -54 -248 -62l-23 -61q61 -11 94 -49.5t33 -100.5q0 -91 -56.5 -142.5t-160.5 -51.5q-80 0 -137 24l25 129 q43 -16 80 -16q63 0 63 51q0 20 -9 32t-27.5 16.5t-32 5.5t-37.5 1l-7 13l54 162q-171 37 -267 172.5t-96 339.5z" />
<glyph unicode="&#xe8;" horiz-adv-x="1032" d="M88 496q0 142 49.5 259t152.5 190t242 73q105 0 186.5 -34.5t130.5 -94t74 -135t25 -162.5q0 -100 -12 -170h-602q8 -112 71 -182t160 -70q141 0 283 66l57 -179q-165 -88 -360 -88q-112 0 -200.5 41.5t-143.5 114.5t-84 167.5t-29 203.5zM276 1442v18h263l145 -278v-21 h-217zM340 586h377q2 10 2 32q0 96 -43.5 157t-140.5 61q-87 0 -138.5 -74t-56.5 -176z" />
<glyph unicode="&#xe9;" horiz-adv-x="1032" d="M88 496q0 142 49.5 259t152.5 190t242 73q105 0 186.5 -34.5t130.5 -94t74 -135t25 -162.5q0 -100 -12 -170h-602q8 -112 71 -182t160 -70q141 0 283 66l57 -179q-165 -88 -360 -88q-112 0 -200.5 41.5t-143.5 114.5t-84 167.5t-29 203.5zM340 586h377q2 10 2 32 q0 96 -43.5 157t-140.5 61q-87 0 -138.5 -74t-56.5 -176zM430 1161v21l145 278h263v-18l-191 -281h-217z" />
<glyph unicode="&#xea;" horiz-adv-x="1032" d="M88 496q0 142 49.5 259t152.5 190t242 73q105 0 186.5 -34.5t130.5 -94t74 -135t25 -162.5q0 -100 -12 -170h-602q8 -112 71 -182t160 -70q141 0 283 66l57 -179q-165 -88 -360 -88q-112 0 -200.5 41.5t-143.5 114.5t-84 167.5t-29 203.5zM240 1161v21l168 278h272 l168 -278v-21h-207l-98 162l-97 -162h-206zM340 586h377q2 10 2 32q0 96 -43.5 157t-140.5 61q-87 0 -138.5 -74t-56.5 -176z" />
<glyph unicode="&#xeb;" horiz-adv-x="1032" d="M88 496q0 142 49.5 259t152.5 190t242 73q105 0 186.5 -34.5t130.5 -94t74 -135t25 -162.5q0 -100 -12 -170h-602q8 -112 71 -182t160 -70q141 0 283 66l57 -179q-165 -88 -360 -88q-112 0 -200.5 41.5t-143.5 114.5t-84 167.5t-29 203.5zM195 1311q0 63 39.5 102 t105.5 39q67 0 107 -39t40 -102q0 -64 -40 -103t-107 -39q-66 0 -105.5 39.5t-39.5 102.5zM340 586h377q2 10 2 32q0 96 -43.5 157t-140.5 61q-87 0 -138.5 -74t-56.5 -176zM600 1311q0 63 39.5 102t105.5 39q67 0 107.5 -39t40.5 -102t-40.5 -102.5t-107.5 -39.5 q-66 0 -105.5 39.5t-39.5 102.5z" />
<glyph unicode="&#xec;" horiz-adv-x="538" d="M-20 1442v18h262l145 -278v-21h-217zM143 0v987h252v-987h-252z" />
<glyph unicode="&#xed;" horiz-adv-x="538" d="M143 0v987h252v-987h-252zM152 1161v21l145 278h262v-18l-190 -281h-217z" />
<glyph unicode="&#xee;" horiz-adv-x="538" d="M-37 1161v21l168 278h272l168 -278v-21h-206l-99 162l-96 -162h-207zM143 0v987h252v-987h-252z" />
<glyph unicode="&#xef;" horiz-adv-x="538" d="M-82 1311q0 63 39.5 102t105.5 39q67 0 107.5 -39t40.5 -102t-40.5 -102.5t-107.5 -39.5q-66 0 -105.5 39.5t-39.5 102.5zM143 0v987h252v-987h-252zM324 1311q0 63 39.5 102t105.5 39q67 0 107 -39t40 -102q0 -64 -40 -103t-107 -39q-66 0 -105.5 39.5t-39.5 102.5z" />
<glyph unicode="&#xf0;" horiz-adv-x="1144" d="M90 483q0 223 115.5 362.5t298.5 139.5q134 0 221 -74l2 4q-4 7 -19 35.5t-21 39t-20 34.5t-24 39t-25 35t-30 37l-228 -62l-45 144l181 47q-73 88 -134 149v21h238q71 -83 84 -103l176 47l43 -141l-123 -33q273 -405 273 -690q0 -244 -126.5 -394.5t-357.5 -150.5 q-151 0 -261 69t-164 184t-54 261zM346 483q0 -144 56 -220.5t167 -76.5q228 0 228 297q0 285 -228 285q-223 0 -223 -285z" />
<glyph unicode="&#xf1;" d="M143 0v987h203l33 -94h4q125 125 283 125q157 0 242 -101t85 -282v-635h-252v604q0 207 -157 207q-87 0 -189 -86v-725h-252zM238 1325q30 59 83 97t113 38q48 0 97 -23t94 -46t84 -23q69 0 122 70l52 -140q-31 -64 -85 -100.5t-110 -36.5q-58 0 -148 46t-128 46 q-73 0 -123 -71z" />
<glyph unicode="&#xf2;" horiz-adv-x="1116" d="M88 494q0 150 53 267.5t160.5 187t255.5 69.5q114 0 204.5 -40t148 -111t88 -166t30.5 -207q0 -232 -123 -378.5t-348 -146.5q-147 0 -255 70t-161 187.5t-53 267.5zM264 1442v18h262l146 -278v-21h-217zM346 494q0 -150 55 -234t156 -84q102 0 157.5 84t55.5 234 t-55.5 233.5t-157.5 83.5q-101 0 -156 -83.5t-55 -233.5z" />
<glyph unicode="&#xf3;" horiz-adv-x="1116" d="M88 494q0 150 53 267.5t160.5 187t255.5 69.5q114 0 204.5 -40t148 -111t88 -166t30.5 -207q0 -232 -123 -378.5t-348 -146.5q-147 0 -255 70t-161 187.5t-53 267.5zM346 494q0 -150 55 -234t156 -84q102 0 157.5 84t55.5 234t-55.5 233.5t-157.5 83.5q-101 0 -156 -83.5 t-55 -233.5zM446 1161v21l146 278h262v-18l-190 -281h-218z" />
<glyph unicode="&#xf4;" horiz-adv-x="1116" d="M88 494q0 150 53 267.5t160.5 187t255.5 69.5q114 0 204.5 -40t148 -111t88 -166t30.5 -207q0 -232 -123 -378.5t-348 -146.5q-147 0 -255 70t-161 187.5t-53 267.5zM252 1161v21l168 278h272l168 -278v-21h-207l-98 162l-96 -162h-207zM346 494q0 -150 55 -234t156 -84 q102 0 157.5 84t55.5 234t-55.5 233.5t-157.5 83.5q-101 0 -156 -83.5t-55 -233.5z" />
<glyph unicode="&#xf5;" horiz-adv-x="1116" d="M88 494q0 150 53 267.5t160.5 187t255.5 69.5q114 0 204.5 -40t148 -111t88 -166t30.5 -207q0 -232 -123 -378.5t-348 -146.5q-147 0 -255 70t-161 187.5t-53 267.5zM233 1325q30 59 83.5 97t113.5 38q48 0 97 -23t94 -46t84 -23q69 0 122 70l52 -140q-31 -64 -85 -100.5 t-110 -36.5q-58 0 -148 46t-128 46q-73 0 -123 -71zM346 494q0 -150 55 -234t156 -84q102 0 157.5 84t55.5 234t-55.5 233.5t-157.5 83.5q-101 0 -156 -83.5t-55 -233.5z" />
<glyph unicode="&#xf6;" horiz-adv-x="1116" d="M88 494q0 150 53 267.5t160.5 187t255.5 69.5q114 0 204.5 -40t148 -111t88 -166t30.5 -207q0 -232 -123 -378.5t-348 -146.5q-147 0 -255 70t-161 187.5t-53 267.5zM209 1311q0 63 39.5 102t105.5 39q67 0 107.5 -39t40.5 -102t-40.5 -102.5t-107.5 -39.5 q-66 0 -105.5 39.5t-39.5 102.5zM346 494q0 -150 55 -234t156 -84q102 0 157.5 84t55.5 234t-55.5 233.5t-157.5 83.5q-101 0 -156 -83.5t-55 -233.5zM614 1311q0 63 40 102t106 39q67 0 107 -39t40 -102q0 -64 -40 -103t-107 -39q-66 0 -106 39.5t-40 102.5z" />
<glyph unicode="&#xf7;" d="M82 451v211h962v-211h-962zM399 137q0 74 45 122t117 48q73 0 118.5 -48t45.5 -122t-45.5 -121t-118.5 -47q-72 0 -117 47t-45 121zM399 977q0 74 45 122t117 48q73 0 118.5 -48t45.5 -122t-45.5 -121t-118.5 -47q-72 0 -117 47t-45 121z" />
<glyph unicode="&#xf8;" horiz-adv-x="1116" d="M88 494q0 150 53 267.5t160.5 187t255.5 69.5q140 0 236 -57l67 94l137 -101l-77 -102q108 -138 108 -358q0 -232 -123 -378.5t-348 -146.5q-123 0 -240 62l-71 -101l-129 103l78 104q-107 137 -107 357zM336 487q0 -79 12 -137l324 445q-46 32 -111 32 q-109 0 -167 -89.5t-58 -250.5zM440 193q44 -33 113 -33q109 0 168 89.5t59 250.5q0 71 -14 143z" />
<glyph unicode="&#xf9;" horiz-adv-x="1116" d="M133 352v635h252v-604q0 -207 150 -207q18 0 34.5 2.5t33 9t28 11.5t27 15.5t22 15.5t22.5 17.5t19 14.5v725h252v-987h-205l-35 94h-2q-125 -125 -274 -125q-158 0 -241 100.5t-83 282.5zM258 1442v18h262l146 -278v-21h-217z" />
<glyph unicode="&#xfa;" horiz-adv-x="1116" d="M133 352v635h252v-604q0 -207 150 -207q18 0 34.5 2.5t33 9t28 11.5t27 15.5t22 15.5t22.5 17.5t19 14.5v725h252v-987h-205l-35 94h-2q-125 -125 -274 -125q-158 0 -241 100.5t-83 282.5zM442 1161v21l146 278h262v-18l-191 -281h-217z" />
<glyph unicode="&#xfb;" horiz-adv-x="1116" d="M133 352v635h252v-604q0 -207 150 -207q18 0 34.5 2.5t33 9t28 11.5t27 15.5t22 15.5t22.5 17.5t19 14.5v725h252v-987h-205l-35 94h-2q-125 -125 -274 -125q-158 0 -241 100.5t-83 282.5zM244 1161v21l168 278h272l168 -278v-21h-207l-98 162l-96 -162h-207z" />
<glyph unicode="&#xfc;" horiz-adv-x="1116" d="M133 352v635h252v-604q0 -207 150 -207q18 0 34.5 2.5t33 9t28 11.5t27 15.5t22 15.5t22.5 17.5t19 14.5v725h252v-987h-205l-35 94h-2q-125 -125 -274 -125q-158 0 -241 100.5t-83 282.5zM205 1311q0 63 39.5 102t105.5 39q67 0 107.5 -39t40.5 -102t-40.5 -102.5 t-107.5 -39.5q-66 0 -105.5 39.5t-39.5 102.5zM610 1311q0 63 40 102t106 39q67 0 107 -39t40 -102q0 -64 -40 -103t-107 -39q-66 0 -106 39.5t-40 102.5z" />
<glyph unicode="&#xfd;" horiz-adv-x="1021" d="M37 967v20h256l168 -545l49 -204h6l47 204l160 545h256v-20l-383 -1090q-59 -164 -143 -238.5t-203 -74.5q-78 0 -176 24v185q93 -19 133 -19q58 0 90.5 33t58.5 109l39 114zM399 1161v21l146 278h262v-18l-191 -281h-217z" />
<glyph unicode="&#xfe;" horiz-adv-x="1130" d="M143 -406v1840h252v-519h4q30 24 47 35.5t51.5 30.5t72.5 28t81 9q125 0 214 -72t131 -188.5t42 -263.5t-42.5 -263.5t-131.5 -189t-213 -72.5q-57 0 -110 19t-79 36.5t-63 47.5h-4v-478h-252zM395 242q80 -66 174 -66q104 0 157.5 88t53.5 230t-53.5 229.5t-157.5 87.5 q-94 0 -174 -66v-503z" />
<glyph unicode="&#xff;" horiz-adv-x="1021" d="M37 967v20h256l168 -545l49 -204h6l47 204l160 545h256v-20l-383 -1090q-59 -164 -143 -238.5t-203 -74.5q-78 0 -176 24v185q93 -19 133 -19q58 0 90.5 33t58.5 109l39 114zM166 1311q0 63 39.5 102t105.5 39q67 0 107.5 -39t40.5 -102t-40.5 -102.5t-107.5 -39.5 q-66 0 -105.5 39.5t-39.5 102.5zM571 1311q0 63 40 102t106 39q67 0 107 -39t40 -102q0 -64 -40 -103t-107 -39q-66 0 -106 39.5t-40 102.5z" />
<glyph unicode="&#x152;" horiz-adv-x="1867" d="M106 696q0 155 36.5 285t108.5 230t189.5 156t270.5 56q115 0 207 -30h833v-211h-584v-371h525v-211h-525v-389h590v-211h-842q-109 -31 -204 -31q-153 0 -270.5 56t-189.5 156t-108.5 230t-36.5 285zM369 696q0 -107 19 -196t58 -161t106.5 -112.5t158.5 -40.5 q126 0 200 47v926q-77 47 -200 47q-91 0 -158.5 -40.5t-106.5 -112.5t-58 -161t-19 -196z" />
<glyph unicode="&#x153;" horiz-adv-x="1724" d="M88 494q0 146 52 263t160 189t257 72q101 0 186.5 -48t147.5 -122q58 77 143.5 123.5t190.5 46.5t186 -34.5t130 -94t74 -135t25 -162.5q0 -100 -12 -170h-602q8 -112 71 -182t160 -70q141 0 283 66l57 -179q-165 -88 -360 -88q-113 0 -204 46t-142 122 q-62 -74 -147.5 -121t-186.5 -47q-112 0 -202.5 41.5t-148 113.5t-88 166.5t-30.5 203.5zM346 494q0 -150 55 -234t156 -84q102 0 157.5 84t55.5 234t-55.5 233.5t-157.5 83.5q-101 0 -156 -83.5t-55 -233.5zM1032 586h377q2 10 2 32q0 96 -43.5 157t-140.5 61 q-87 0 -138.5 -74t-56.5 -176z" />
<glyph unicode="&#x178;" horiz-adv-x="1142" d="M12 1372v21h275l282 -598h4l283 598h274v-21l-430 -807v-565h-256v565zM190 1675q0 63 40 102.5t106 39.5q67 0 107 -39t40 -103q0 -63 -40 -102t-107 -39q-66 0 -106 39t-40 102zM670 1675q0 63 39.5 102.5t105.5 39.5q67 0 107.5 -39.5t40.5 -102.5t-40.5 -102 t-107.5 -39q-66 0 -105.5 39t-39.5 102z" />
<glyph unicode="&#x2c6;" horiz-adv-x="1087" d="M240 1161v21l168 278h272l168 -278v-21h-207l-98 162l-97 -162h-206z" />
<glyph unicode="&#x2dc;" horiz-adv-x="1087" d="M221 1325q30 59 83.5 97t113.5 38q48 0 96.5 -23t93.5 -46t84 -23q70 0 123 70l51 -140q-31 -64 -84.5 -100.5t-109.5 -36.5q-58 0 -148.5 46t-128.5 46q-73 0 -123 -71z" />
<glyph unicode="&#x2000;" horiz-adv-x="918" />
<glyph unicode="&#x2001;" horiz-adv-x="1837" />
<glyph unicode="&#x2002;" horiz-adv-x="918" />
<glyph unicode="&#x2003;" horiz-adv-x="1837" />
<glyph unicode="&#x2004;" horiz-adv-x="612" />
<glyph unicode="&#x2005;" horiz-adv-x="459" />
<glyph unicode="&#x2006;" horiz-adv-x="306" />
<glyph unicode="&#x2007;" horiz-adv-x="306" />
<glyph unicode="&#x2008;" horiz-adv-x="229" />
<glyph unicode="&#x2009;" horiz-adv-x="367" />
<glyph unicode="&#x200a;" horiz-adv-x="102" />
<glyph unicode="&#x2010;" horiz-adv-x="843" d="M133 451v211h578v-211h-578z" />
<glyph unicode="&#x2011;" horiz-adv-x="843" d="M133 451v211h578v-211h-578z" />
<glyph unicode="&#x2012;" horiz-adv-x="843" d="M133 451v211h578v-211h-578z" />
<glyph unicode="&#x2013;" horiz-adv-x="1116" d="M133 451v211h850v-211h-850z" />
<glyph unicode="&#x2014;" horiz-adv-x="1722" d="M133 451v211h1456v-211h-1456z" />
<glyph unicode="&#x2018;" horiz-adv-x="552" d="M92 786v21l187 586h188v-21l-123 -586h-252z" />
<glyph unicode="&#x2019;" horiz-adv-x="546" d="M102 786v21l123 586h252v-21l-186 -586h-189z" />
<glyph unicode="&#x201a;" horiz-adv-x="528" d="M41 -309l123 585h252v-20l-187 -586h-188v21z" />
<glyph unicode="&#x201c;" horiz-adv-x="980" d="M92 786v21l187 586h188v-21l-123 -586h-252zM520 786v21l187 586h188v-21l-123 -586h-252z" />
<glyph unicode="&#x201d;" horiz-adv-x="976" d="M102 786v21l123 586h252v-21l-186 -586h-189zM532 786v21l123 586h252v-21l-186 -586h-189z" />
<glyph unicode="&#x201e;" horiz-adv-x="958" d="M41 -309l123 585h252v-20l-187 -586h-188v21zM471 -309l123 585h252v-20l-187 -586h-188v21z" />
<glyph unicode="&#x2022;" horiz-adv-x="774" d="M156 596q0 104 63 168.5t168 64.5t168 -64.5t63 -168.5t-63 -169t-168 -65t-168 65t-63 169z" />
<glyph unicode="&#x2026;" horiz-adv-x="1529" d="M109 137q0 74 45 122t116 48q73 0 118.5 -48t45.5 -122t-45.5 -121t-118.5 -47q-72 0 -116.5 47t-44.5 121zM604 137q0 74 45 122t117 48q73 0 118.5 -48t45.5 -122t-45.5 -121t-118.5 -47q-72 0 -117 47t-45 121zM1096 137q0 74 45 122t116 48q73 0 118.5 -48t45.5 -122 t-45.5 -121t-118.5 -47q-72 0 -116.5 47t-44.5 121z" />
<glyph unicode="&#x202f;" horiz-adv-x="367" />
<glyph unicode="&#x2039;" horiz-adv-x="641" d="M74 541v24l301 449l168 -101l-187 -362l189 -361l-170 -98z" />
<glyph unicode="&#x203a;" horiz-adv-x="641" d="M96 915l170 99l301 -449v-24l-301 -449l-168 101l187 362z" />
<glyph unicode="&#x205f;" horiz-adv-x="459" />
<glyph unicode="&#x20ac;" d="M41 422l57 194h64q-2 25 -2 80q0 53 2 78h-121l55 195h94q56 216 191 335t348 119q187 0 340 -90l-70 -213q-76 39 -137.5 55.5t-132.5 16.5q-95 0 -164 -57t-98 -166h485l-55 -195h-475v-78v-80h448l-55 -194h-350q29 -109 97.5 -165t166.5 -56q74 0 134 15.5t136 55.5 l70 -213q-166 -90 -340 -90q-212 0 -347.5 119t-191.5 334h-149z" />
<glyph unicode="&#x2122;" horiz-adv-x="1521" d="M119 1303v131h502v-131h-168v-443h-164v443h-170zM723 860v574h180l88 -181l56 -135h2l55 131l94 185h178v-574h-166v199l21 186h-2l-113 -268h-135l-115 268h-2l21 -186v-199h-162z" />
<glyph unicode="&#x25fc;" horiz-adv-x="983" d="M0 0v983h983v-983h-983z" />
<glyph unicode="&#xfb01;" horiz-adv-x="1228" d="M57 776v150l156 61v131q0 165 80.5 245.5t222.5 80.5q90 0 158 -14v-228q-62 15 -119 15q-52 0 -72 -22.5t-20 -88.5v-119h627v-987h-250v776h-377v-776h-250v776h-156zM821 1290q0 67 39.5 109.5t104.5 42.5t105 -42.5t40 -109.5t-40 -109t-105 -42t-104.5 42t-39.5 109 z" />
<glyph unicode="&#xfb02;" horiz-adv-x="1243" d="M55 791v139l156 57v141q0 316 307 316q88 0 156 -14v-193q-66 16 -119 16q-49 0 -70.5 -31t-21.5 -100v-135h221v-196h-221v-791h-252v791h-156zM848 0v1434h252v-1434h-252z" />
</font>
</defs>
</svg>
